<svg width="80" height="80" viewBox="0 0 80 80" fill="none" xmlns="http://www.w3.org/2000/svg">
<g clip-path="url(#clip0_1395_8274)">
<path d="M66.9441 75.6251C65.9011 77.064 64.1407 76.914 62.5609 76.8987C60.1339 76.8759 57.7299 76.703 55.3309 76.3216C50.5864 75.5691 45.9106 74.4099 41.446 72.6277C32.5879 69.0889 24.8085 63.2112 18.4409 56.164C12.0072 49.0431 7.22713 40.435 4.9223 31.1024C3.73427 26.2975 3.07539 21.4596 3.03977 16.5072C3.02451 14.4912 3.66304 12.8387 5.88138 12.4396C6.83791 12.2667 7.82496 12.3913 8.78658 12.4345C10.0662 12.493 11.3509 12.4625 12.6305 12.4676C14.4571 12.4752 16.2836 12.4854 18.1127 12.4905C20.0487 12.4955 21.9007 12.976 22.5799 15.0327C23.1498 16.7615 23.277 18.7292 23.5924 20.5138L24.9306 28.0949C25.391 30.7032 24.722 32.8057 22.5571 34.4531C20.1886 36.2556 17.0417 38.2817 18.0263 41.7265C18.6622 43.9535 20.4735 45.8704 21.8956 47.6271C23.5441 49.6609 25.2994 51.6083 27.1616 53.4463C29.0238 55.2844 31.0157 57.0259 33.0763 58.658C34.7172 59.9571 36.5081 61.5892 38.6273 62.024C42.026 62.7205 43.9263 59.4334 45.7097 57.1479C46.8214 55.7191 48.3503 54.7988 50.2048 54.8115C50.8739 54.8166 51.5201 54.9615 52.1764 55.0759L59.8287 56.4259C61.5789 56.736 63.8965 56.7793 65.5093 57.6106C67.5598 58.6682 67.486 60.7554 67.4987 62.7587C67.5114 65.0365 67.5267 67.3144 67.5292 69.5923C67.5318 71.5905 68.0177 73.8251 66.9416 75.62C65.9291 77.3081 68.5672 78.8436 69.5771 77.1606C70.788 75.1395 70.6609 73.0243 70.5896 70.7668C70.5108 68.2576 70.5718 65.7357 70.554 63.2239C70.5387 60.8621 70.6151 58.6529 69.076 56.7055C68.0457 55.3988 66.5981 54.57 64.9725 54.2472C60.5995 53.3828 56.1806 52.6277 51.7796 51.9184C49.7393 51.588 47.6736 51.8574 45.8725 52.9226C44.3359 53.8328 43.3514 55.2336 42.2982 56.6242C41.6393 57.4962 40.7337 59.0724 39.5227 59.0749C38.6985 59.0775 37.8157 58.3961 37.1721 57.9589C35.9841 57.1453 34.8647 56.2225 33.7581 55.3022C29.3901 51.6693 25.2333 47.4746 21.9974 42.7866C21.5496 42.1384 20.8729 41.2765 20.8729 40.4427C20.8729 39.7486 21.4555 39.2275 21.9312 38.7876C22.8013 37.9868 23.7985 37.3182 24.7347 36.5962C27.7086 34.298 28.5354 31.0464 27.9045 27.472L26.5104 19.5758C26.1517 17.5394 26.0372 15.1141 25.1239 13.2252C22.9743 8.78129 17.9856 9.42194 13.8465 9.41686C11.5722 9.41432 9.29283 9.28466 7.02362 9.30246C4.7544 9.32025 2.28167 10.1414 0.974072 12.2184C-0.0664091 13.8862 -0.0104419 15.8005 0.00482192 17.6818C0.0302616 20.5444 0.327905 23.3815 0.803626 26.2034C2.50554 36.281 6.3978 45.728 12.6102 53.8785C18.7894 61.9884 26.7749 68.9109 35.9256 73.4667C40.4131 75.7013 45.1576 77.3691 50.0598 78.419C54.6975 79.4105 59.5386 80.2088 64.2984 79.9495C66.5167 79.83 68.2695 78.9732 69.5797 77.1631C70.7321 75.5691 68.0864 74.0463 66.9441 75.6225V75.6251Z" fill="#4E6137"/>
<path d="M39.0189 23.0878C46.8696 26.4944 53.1812 32.7306 56.4222 40.6802C57.1549 42.4751 60.1084 41.6895 59.3656 39.8693C55.8295 31.1976 49.1821 24.1962 40.558 20.454C38.7747 19.6786 37.2178 22.3073 39.0164 23.0878H39.0189Z" fill="#4E6137"/>
<path d="M43.2953 13.0862C53.7866 17.6216 62.2097 26.0161 66.5217 36.6301C67.2518 38.4249 70.2053 37.6394 69.4651 35.8191C64.8605 24.4857 56.0965 15.3208 44.8344 10.4524C43.0511 9.6821 41.4942 12.3083 43.2928 13.0862H43.2953Z" fill="#4E6137"/>
<path d="M47.7065 2.77358C60.9199 8.47334 71.5256 19.0949 76.9392 32.4571C77.6668 34.2545 80.6203 33.4689 79.8826 31.6461C74.1765 17.5645 63.2323 6.17259 49.2482 0.139797C47.4623 -0.63051 45.9054 1.99819 47.7065 2.77358Z" fill="#4E6137"/>
</g>
<defs>
<clipPath id="clip0_1395_8274">
<rect width="80" height="80" fill="white"/>
</clipPath>
</defs>
</svg>
