<svg width="102" height="72" viewBox="0 0 102 72" fill="none" xmlns="http://www.w3.org/2000/svg">
<g clip-path="url(#clip0_1395_8250)">
<path d="M87.192 68.4533H16.3855C15.6578 68.4533 14.93 68.462 14.2023 68.4533C10.6394 68.4125 7.25121 66.6893 5.30384 63.6591C3.10906 60.2418 3.59808 56.0851 3.59808 52.2107C3.59808 46.2173 3.59808 40.2238 3.59808 34.2304V17.6851C3.59808 16.5033 3.58644 15.3214 3.59808 14.1396C3.63593 10.6233 5.27765 7.2904 8.23217 5.30811C11.2071 3.31417 14.4294 3.49755 17.7943 3.49755H82.8345C85.6172 3.49755 88.6533 3.20647 91.2701 4.30095C95.1969 5.94267 97.6827 9.8374 97.738 14.0494C97.7497 14.9925 97.738 15.9356 97.738 16.8758V51.157C97.738 54.5627 98.2795 58.7689 96.9346 61.9795C95.29 65.9092 91.4011 68.3805 87.1891 68.4475C84.9448 68.4824 84.9361 71.9783 87.1891 71.9405C95.226 71.8095 101.208 65.3299 101.231 57.4153C101.243 53.0199 101.231 48.6245 101.231 44.2291C101.231 34.178 101.362 24.1151 101.231 14.064C101.132 6.24249 94.8097 0.0540125 87.0086 0.0103497C84.1822 -0.00420457 81.3528 0.0103497 78.5235 0.0103497C66.1669 0.0103497 53.8132 0.0103497 41.4567 0.0103497C32.5 0.0103497 23.5404 -0.0129371 14.5807 0.0103497C7.16388 0.0278148 0.885168 5.34886 0.163276 12.8443C-0.168562 16.2937 0.105059 19.874 0.105059 23.3292V56.9379C0.105059 59.2986 0.401966 61.572 1.38583 63.7493C3.24878 67.8711 7.21628 70.9799 11.6874 71.7251C14.31 72.1617 17.1015 71.9492 19.7475 71.9492H87.192C89.4392 71.9492 89.4421 68.4562 87.192 68.4562V68.4533Z" fill="#4E6137"/>
<path d="M13.8297 16.0926L44.1317 40.4012C45.4911 41.4899 46.996 43.0472 48.6261 43.7167C51.5806 44.9305 53.7346 43.1869 55.8624 41.4782L72.9899 27.739L87.5063 16.0926C89.2587 14.6867 86.7728 12.2299 85.035 13.6213L55.4462 37.3564C54.2469 38.3199 53.0476 39.5483 51.7261 40.343C50.0989 41.3181 48.5999 39.5338 47.3715 38.5499L30.1392 24.7262L16.301 13.6213C14.5632 12.227 12.0774 14.6838 13.8297 16.0926Z" fill="#4E6137"/>
<path d="M16.301 56.2457L32.628 43.1498C34.3803 41.7439 31.8945 39.2871 30.1567 40.6785L13.8297 53.7744C12.0774 55.1804 14.5632 57.6371 16.301 56.2457Z" fill="#4E6137"/>
<path d="M87.5089 53.7798L71.1819 40.6838C69.4441 39.2895 66.9582 41.7463 68.7106 43.1551L85.0375 56.2511C86.7753 57.6454 89.2612 55.1886 87.5089 53.7798Z" fill="#4E6137"/>
</g>
<defs>
<clipPath id="clip0_1395_8250">
<rect width="101.292" height="72" fill="white"/>
</clipPath>
</defs>
</svg>
