<svg width="80" height="80" viewBox="0 0 80 80" fill="none" xmlns="http://www.w3.org/2000/svg">
<rect width="80" height="80" rx="20" fill="white"/>
<g clip-path="url(#clip0_2342_6418)">
<path d="M35.1245 36.9511C39.333 41.1596 40.0365 47.2826 40.0365 47.2826C40.0365 47.2826 33.9135 46.5791 29.705 42.3706C25.4965 38.1621 24.793 32.0391 24.793 32.0391C24.793 32.0391 30.916 32.7426 35.1245 36.9511V36.9511Z" stroke="#657E47" stroke-width="2" stroke-linejoin="round"/>
<path d="M51.4721 36.1753C47.2636 40.3838 41.1406 41.0873 41.1406 41.0873C41.1406 41.0873 41.8442 34.9643 46.0527 30.7558C50.2612 26.5473 56.3842 25.8438 56.3842 25.8438C56.3842 25.8438 55.6807 31.9668 51.4721 36.1753V36.1753Z" stroke="#657E47" stroke-width="2" stroke-linejoin="round"/>
<path d="M39.4317 18.4815C41.4826 21.8159 41.0008 25.8411 41.0008 25.8411C41.0008 25.8411 37.1888 24.4596 35.1379 21.1252C33.0869 17.7908 33.5688 13.7656 33.5688 13.7656C33.5688 13.7656 37.3807 15.1471 39.4317 18.4815Z" stroke="#657E47" stroke-width="2" stroke-linejoin="round"/>
<path d="M48.5002 23.6465C45.1658 25.6975 41.1406 25.2157 41.1406 25.2157C41.1406 25.2157 42.5221 21.4037 45.8565 19.3527C49.1909 17.3018 53.2161 17.7836 53.2161 17.7836C53.2161 17.7836 51.8346 21.5956 48.5002 23.6465Z" stroke="#657E47" stroke-width="2" stroke-linejoin="round"/>
<path d="M41.1406 25.8438V53.7256" stroke="#657E47" stroke-width="2" stroke-linejoin="round"/>
<path d="M28.7784 61.9857L17.9608 53.2873C17.7391 53.1295 17.5984 52.8779 17.5728 52.605L16.4258 38.5938L16.8778 38.6321C18.1143 38.7345 19.1675 39.5659 19.5555 40.7428L21.9391 47.9488" stroke="#EA7C5B" stroke-width="2" stroke-linejoin="round"/>
<path d="M34.9869 56.9858L32.9274 51.7199C32.6076 50.9012 31.9254 50.2786 31.0811 50.0313L22.9924 47.6776C22.4936 47.5327 21.9691 47.8269 21.8326 48.3258C21.564 49.315 21.9989 50.3554 22.8901 50.8628L27.1754 53.2933" stroke="#EA7C5B" stroke-width="2" stroke-linejoin="round"/>
<path d="M38.5647 59.8817L35.7402 56.375L27.8436 62.7354L30.6681 66.2421L38.5647 59.8817Z" stroke="#EA7C5B" stroke-width="2" stroke-linejoin="round"/>
<path d="M51.4668 61.9857L62.2801 53.2873C62.5019 53.1295 62.6426 52.8779 62.6682 52.605L63.8194 38.5938L63.3674 38.6321C62.1309 38.7345 61.0777 39.5659 60.6897 40.7428L58.3062 47.9488" stroke="#EA7C5B" stroke-width="2" stroke-linejoin="round"/>
<path d="M45.2578 56.9858L47.3173 51.7199C47.6371 50.9012 48.3193 50.2786 49.1636 50.0313L57.2523 47.6776C57.7511 47.5327 58.2756 47.8269 58.4121 48.3258C58.6807 49.315 58.2458 50.3554 57.3546 50.8628L53.0693 53.2933" stroke="#EA7C5B" stroke-width="2" stroke-linejoin="round"/>
<path d="M49.574 66.2411L52.3984 62.7344L44.5018 56.3739L41.6773 59.8806L49.574 66.2411Z" stroke="#EA7C5B" stroke-width="2" stroke-linejoin="round"/>
</g>
<defs>
<clipPath id="clip0_2342_6418">
<rect width="48.2465" height="53.3333" fill="white" transform="translate(16 13.3359)"/>
</clipPath>
</defs>
</svg>
